<svg xmlns="http://www.w3.org/2000/svg" xmlns:xlink="http://www.w3.org/1999/xlink" width="4096" zoomAndPan="magnify" viewBox="0 0 3072 3071.999987" height="4096" preserveAspectRatio="xMidYMid meet" version="1.2"><defs/><g id="b5cb0cd487"><g style="fill:#ff00ff;fill-opacity:1;"><g transform="translate(64.315228, 1735.484311)"><path style="stroke:none" d="M 218.796875 -335.125 L 218.796875 -461.859375 L 443.578125 -461.859375 L 443.578125 0 L 213.4375 0 L 213.4375 -129.890625 L 54.546875 -129.890625 L 0 -181.90625 L 0 -461.859375 L 206.8125 -461.859375 L 206.8125 -335.125 Z M 218.796875 -335.125 "/></g><g transform="translate(530.590632, 1735.484311)"><path style="stroke:none" d="M 362.859375 -236.453125 L 269.859375 -236.453125 L 269.859375 -224.78125 L 362.859375 -224.78125 L 410.78125 -176.234375 L 410.78125 -51.390625 L 356.5625 0.3125 L -0.3125 0.3125 L -0.3125 -461.859375 L 356.5625 -461.859375 L 410.78125 -407.640625 L 410.78125 -284.359375 Z M 362.859375 -236.453125 "/></g><g transform="translate(964.078584, 1735.484311)"><path style="stroke:none" d="M 270.5 -461.234375 L 270.5 0 L 0 0 L 0 -461.234375 Z M 270.5 -461.234375 "/></g><g transform="translate(1256.958806, 1735.484311)"><path style="stroke:none" d="M 413.9375 -51.390625 L 359.078125 0.3125 L 1.265625 0.3125 L 1.265625 -462.171875 L 359.078125 -462.171875 L 413.9375 -408.265625 Z M 413.9375 -51.390625 "/></g><g transform="translate(1693.284133, 1735.484311)"><path style="stroke:none" d="M 413.9375 -51.390625 L 359.078125 0.3125 L 1.265625 0.3125 L 1.265625 -462.171875 L 359.078125 -462.171875 L 413.9375 -408.265625 Z M 413.9375 -51.390625 "/></g><g transform="translate(2129.60946, 1735.484311)"><path style="stroke:none" d="M 386.515625 -310.53125 L 253.15625 -310.53125 L 253.15625 -299.1875 L 386.515625 -299.1875 L 386.515625 -162.671875 L 253.15625 -162.671875 L 253.15625 -151.328125 L 386.515625 -151.328125 L 386.515625 -0.3125 L 0 -0.3125 L 0 -461.546875 L 386.515625 -461.546875 Z M 386.515625 -310.53125 "/></g><g transform="translate(2538.822084, 1735.484311)"><path style="stroke:none" d="M 235.5 -463.75 L 470.375 -463.75 L 470.375 0.3125 C 391.976562 0.3125 313.632812 0.15625 235.34375 -0.15625 C 157.050781 -0.46875 78.601562 -0.625 0 -0.625 L 0 -464.703125 L 235.5 -355.609375 Z M 235.5 -463.75 "/></g></g><g style="fill:#00ffff;fill-opacity:1;"><g transform="translate(40.102959, 1735.484311)"><path style="stroke:none" d="M 218.796875 -335.125 L 218.796875 -461.859375 L 443.578125 -461.859375 L 443.578125 0 L 213.4375 0 L 213.4375 -129.890625 L 54.546875 -129.890625 L 0 -181.90625 L 0 -461.859375 L 206.8125 -461.859375 L 206.8125 -335.125 Z M 218.796875 -335.125 "/></g><g transform="translate(506.378363, 1735.484311)"><path style="stroke:none" d="M 362.859375 -236.453125 L 269.859375 -236.453125 L 269.859375 -224.78125 L 362.859375 -224.78125 L 410.78125 -176.234375 L 410.78125 -51.390625 L 356.5625 0.3125 L -0.3125 0.3125 L -0.3125 -461.859375 L 356.5625 -461.859375 L 410.78125 -407.640625 L 410.78125 -284.359375 Z M 362.859375 -236.453125 "/></g><g transform="translate(939.866315, 1735.484311)"><path style="stroke:none" d="M 270.5 -461.234375 L 270.5 0 L 0 0 L 0 -461.234375 Z M 270.5 -461.234375 "/></g><g transform="translate(1232.746537, 1735.484311)"><path style="stroke:none" d="M 413.9375 -51.390625 L 359.078125 0.3125 L 1.265625 0.3125 L 1.265625 -462.171875 L 359.078125 -462.171875 L 413.9375 -408.265625 Z M 413.9375 -51.390625 "/></g><g transform="translate(1669.071864, 1735.484311)"><path style="stroke:none" d="M 413.9375 -51.390625 L 359.078125 0.3125 L 1.265625 0.3125 L 1.265625 -462.171875 L 359.078125 -462.171875 L 413.9375 -408.265625 Z M 413.9375 -51.390625 "/></g><g transform="translate(2105.397191, 1735.484311)"><path style="stroke:none" d="M 386.515625 -310.53125 L 253.15625 -310.53125 L 253.15625 -299.1875 L 386.515625 -299.1875 L 386.515625 -162.671875 L 253.15625 -162.671875 L 253.15625 -151.328125 L 386.515625 -151.328125 L 386.515625 -0.3125 L 0 -0.3125 L 0 -461.546875 L 386.515625 -461.546875 Z M 386.515625 -310.53125 "/></g><g transform="translate(2514.609815, 1735.484311)"><path style="stroke:none" d="M 235.5 -463.75 L 470.375 -463.75 L 470.375 0.3125 C 391.976562 0.3125 313.632812 0.15625 235.34375 -0.15625 C 157.050781 -0.46875 78.601562 -0.625 0 -0.625 L 0 -464.703125 L 235.5 -355.609375 Z M 235.5 -463.75 "/></g></g><g style="fill:#000000;fill-opacity:1;"><g transform="translate(52.209093, 1735.484311)"><path style="stroke:none" d="M 218.796875 -335.125 L 218.796875 -461.859375 L 443.578125 -461.859375 L 443.578125 0 L 213.4375 0 L 213.4375 -129.890625 L 54.546875 -129.890625 L 0 -181.90625 L 0 -461.859375 L 206.8125 -461.859375 L 206.8125 -335.125 Z M 218.796875 -335.125 "/></g><g transform="translate(518.484497, 1735.484311)"><path style="stroke:none" d="M 362.859375 -236.453125 L 269.859375 -236.453125 L 269.859375 -224.78125 L 362.859375 -224.78125 L 410.78125 -176.234375 L 410.78125 -51.390625 L 356.5625 0.3125 L -0.3125 0.3125 L -0.3125 -461.859375 L 356.5625 -461.859375 L 410.78125 -407.640625 L 410.78125 -284.359375 Z M 362.859375 -236.453125 "/></g><g transform="translate(951.972449, 1735.484311)"><path style="stroke:none" d="M 270.5 -461.234375 L 270.5 0 L 0 0 L 0 -461.234375 Z M 270.5 -461.234375 "/></g><g transform="translate(1244.852672, 1735.484311)"><path style="stroke:none" d="M 413.9375 -51.390625 L 359.078125 0.3125 L 1.265625 0.3125 L 1.265625 -462.171875 L 359.078125 -462.171875 L 413.9375 -408.265625 Z M 413.9375 -51.390625 "/></g><g transform="translate(1681.177998, 1735.484311)"><path style="stroke:none" d="M 413.9375 -51.390625 L 359.078125 0.3125 L 1.265625 0.3125 L 1.265625 -462.171875 L 359.078125 -462.171875 L 413.9375 -408.265625 Z M 413.9375 -51.390625 "/></g><g transform="translate(2117.503325, 1735.484311)"><path style="stroke:none" d="M 386.515625 -310.53125 L 253.15625 -310.53125 L 253.15625 -299.1875 L 386.515625 -299.1875 L 386.515625 -162.671875 L 253.15625 -162.671875 L 253.15625 -151.328125 L 386.515625 -151.328125 L 386.515625 -0.3125 L 0 -0.3125 L 0 -461.546875 L 386.515625 -461.546875 Z M 386.515625 -310.53125 "/></g><g transform="translate(2526.71595, 1735.484311)"><path style="stroke:none" d="M 235.5 -463.75 L 470.375 -463.75 L 470.375 0.3125 C 391.976562 0.3125 313.632812 0.15625 235.34375 -0.15625 C 157.050781 -0.46875 78.601562 -0.625 0 -0.625 L 0 -464.703125 L 235.5 -355.609375 Z M 235.5 -463.75 "/></g></g><g style="fill:#ff00ff;fill-opacity:1;"><g transform="translate(1592.340369, 1924.905873)"><path style="stroke:none" d="M -0.125 -180.390625 L 69.53125 -180.390625 L 89.453125 -160.46875 L 89.453125 -117.390625 L 91.671875 -117.390625 L 91.671875 -160.46875 L 111.859375 -180.390625 L 161.6875 -180.390625 L 181.5 -160.46875 L 181.5 -117.390625 L 183.71875 -117.390625 L 183.71875 -160.46875 L 203.65625 -180.390625 L 273.546875 -180.390625 L 273.546875 -91.3125 L 230.609375 0.25 L 0.25 0.25 Z M -0.125 -180.390625 "/></g><g transform="translate(1875.249608, 1924.905873)"><path style="stroke:none" d="M 150.859375 -121.203125 L 98.8125 -121.203125 L 98.8125 -116.78125 L 150.859375 -116.78125 L 150.859375 -63.5 L 98.8125 -63.5 L 98.8125 -59.0625 L 150.859375 -59.0625 L 150.859375 -0.125 L 0 -0.125 L 0 -180.15625 L 150.859375 -180.15625 Z M 150.859375 -121.203125 "/></g><g transform="translate(2034.978269, 1924.905873)"><path style="stroke:none" d="M 0 -0.25 L 0 -180.28125 L 105.828125 -180.28125 L 105.828125 -88.96875 L 140.28125 -88.96875 L 140.28125 -0.25 Z M 0 -0.25 "/></g><g transform="translate(2184.247043, 1924.905873)"><path style="stroke:none" d="M 0 -0.25 L 0 -180.28125 L 105.828125 -180.28125 L 105.828125 -88.96875 L 140.28125 -88.96875 L 140.28125 -0.25 Z M 0 -0.25 "/></g><g transform="translate(2333.515816, 1924.905873)"><path style="stroke:none" d="M 91.921875 -181.015625 L 183.59375 -181.015625 L 183.59375 0.125 C 153 0.125 122.421875 0.0625 91.859375 -0.0625 C 61.296875 -0.1875 30.675781 -0.25 0 -0.25 L 0 -181.375 L 91.921875 -138.8125 Z M 91.921875 -181.015625 "/></g><g transform="translate(2525.97778, 1924.905873)"><path style="stroke:none" d="M 150.859375 -121.203125 L 98.8125 -121.203125 L 98.8125 -116.78125 L 150.859375 -116.78125 L 150.859375 -63.5 L 98.8125 -63.5 L 98.8125 -59.0625 L 150.859375 -59.0625 L 150.859375 -0.125 L 0 -0.125 L 0 -180.15625 L 150.859375 -180.15625 Z M 150.859375 -121.203125 "/></g><g transform="translate(2685.706441, 1924.905873)"><path style="stroke:none" d="M 160.703125 -180.28125 L 160.703125 -113.828125 L 138.0625 -113.828125 L 160.703125 -91.546875 L 160.703125 -20.546875 L 139.671875 -0.375 L 0.609375 -0.375 L 0.609375 -66.8125 L 22.265625 -66.8125 L 0.609375 -89.09375 L 0.609375 -159.234375 L 21.65625 -180.28125 Z M 160.703125 -180.28125 "/></g><g transform="translate(2855.40276, 1924.905873)"><path style="stroke:none" d="M 160.703125 -180.28125 L 160.703125 -113.828125 L 138.0625 -113.828125 L 160.703125 -91.546875 L 160.703125 -20.546875 L 139.671875 -0.375 L 0.609375 -0.375 L 0.609375 -66.8125 L 22.265625 -66.8125 L 0.609375 -89.09375 L 0.609375 -159.234375 L 21.65625 -180.28125 Z M 160.703125 -180.28125 "/></g></g><g style="fill:#00ffff;fill-opacity:1;"><g transform="translate(1582.88965, 1924.905873)"><path style="stroke:none" d="M -0.125 -180.390625 L 69.53125 -180.390625 L 89.453125 -160.46875 L 89.453125 -117.390625 L 91.671875 -117.390625 L 91.671875 -160.46875 L 111.859375 -180.390625 L 161.6875 -180.390625 L 181.5 -160.46875 L 181.5 -117.390625 L 183.71875 -117.390625 L 183.71875 -160.46875 L 203.65625 -180.390625 L 273.546875 -180.390625 L 273.546875 -91.3125 L 230.609375 0.25 L 0.25 0.25 Z M -0.125 -180.390625 "/></g><g transform="translate(1865.798889, 1924.905873)"><path style="stroke:none" d="M 150.859375 -121.203125 L 98.8125 -121.203125 L 98.8125 -116.78125 L 150.859375 -116.78125 L 150.859375 -63.5 L 98.8125 -63.5 L 98.8125 -59.0625 L 150.859375 -59.0625 L 150.859375 -0.125 L 0 -0.125 L 0 -180.15625 L 150.859375 -180.15625 Z M 150.859375 -121.203125 "/></g><g transform="translate(2025.52755, 1924.905873)"><path style="stroke:none" d="M 0 -0.25 L 0 -180.28125 L 105.828125 -180.28125 L 105.828125 -88.96875 L 140.28125 -88.96875 L 140.28125 -0.25 Z M 0 -0.25 "/></g><g transform="translate(2174.796323, 1924.905873)"><path style="stroke:none" d="M 0 -0.25 L 0 -180.28125 L 105.828125 -180.28125 L 105.828125 -88.96875 L 140.28125 -88.96875 L 140.28125 -0.25 Z M 0 -0.25 "/></g><g transform="translate(2324.065097, 1924.905873)"><path style="stroke:none" d="M 91.921875 -181.015625 L 183.59375 -181.015625 L 183.59375 0.125 C 153 0.125 122.421875 0.0625 91.859375 -0.0625 C 61.296875 -0.1875 30.675781 -0.25 0 -0.25 L 0 -181.375 L 91.921875 -138.8125 Z M 91.921875 -181.015625 "/></g><g transform="translate(2516.52706, 1924.905873)"><path style="stroke:none" d="M 150.859375 -121.203125 L 98.8125 -121.203125 L 98.8125 -116.78125 L 150.859375 -116.78125 L 150.859375 -63.5 L 98.8125 -63.5 L 98.8125 -59.0625 L 150.859375 -59.0625 L 150.859375 -0.125 L 0 -0.125 L 0 -180.15625 L 150.859375 -180.15625 Z M 150.859375 -121.203125 "/></g><g transform="translate(2676.255721, 1924.905873)"><path style="stroke:none" d="M 160.703125 -180.28125 L 160.703125 -113.828125 L 138.0625 -113.828125 L 160.703125 -91.546875 L 160.703125 -20.546875 L 139.671875 -0.375 L 0.609375 -0.375 L 0.609375 -66.8125 L 22.265625 -66.8125 L 0.609375 -89.09375 L 0.609375 -159.234375 L 21.65625 -180.28125 Z M 160.703125 -180.28125 "/></g><g transform="translate(2845.952041, 1924.905873)"><path style="stroke:none" d="M 160.703125 -180.28125 L 160.703125 -113.828125 L 138.0625 -113.828125 L 160.703125 -91.546875 L 160.703125 -20.546875 L 139.671875 -0.375 L 0.609375 -0.375 L 0.609375 -66.8125 L 22.265625 -66.8125 L 0.609375 -89.09375 L 0.609375 -159.234375 L 21.65625 -180.28125 Z M 160.703125 -180.28125 "/></g></g><g style="fill:#000000;fill-opacity:1;"><g transform="translate(1587.61501, 1924.905873)"><path style="stroke:none" d="M -0.125 -180.390625 L 69.53125 -180.390625 L 89.453125 -160.46875 L 89.453125 -117.390625 L 91.671875 -117.390625 L 91.671875 -160.46875 L 111.859375 -180.390625 L 161.6875 -180.390625 L 181.5 -160.46875 L 181.5 -117.390625 L 183.71875 -117.390625 L 183.71875 -160.46875 L 203.65625 -180.390625 L 273.546875 -180.390625 L 273.546875 -91.3125 L 230.609375 0.25 L 0.25 0.25 Z M -0.125 -180.390625 "/></g><g transform="translate(1870.524249, 1924.905873)"><path style="stroke:none" d="M 150.859375 -121.203125 L 98.8125 -121.203125 L 98.8125 -116.78125 L 150.859375 -116.78125 L 150.859375 -63.5 L 98.8125 -63.5 L 98.8125 -59.0625 L 150.859375 -59.0625 L 150.859375 -0.125 L 0 -0.125 L 0 -180.15625 L 150.859375 -180.15625 Z M 150.859375 -121.203125 "/></g><g transform="translate(2030.25291, 1924.905873)"><path style="stroke:none" d="M 0 -0.25 L 0 -180.28125 L 105.828125 -180.28125 L 105.828125 -88.96875 L 140.28125 -88.96875 L 140.28125 -0.25 Z M 0 -0.25 "/></g><g transform="translate(2179.521683, 1924.905873)"><path style="stroke:none" d="M 0 -0.25 L 0 -180.28125 L 105.828125 -180.28125 L 105.828125 -88.96875 L 140.28125 -88.96875 L 140.28125 -0.25 Z M 0 -0.25 "/></g><g transform="translate(2328.790456, 1924.905873)"><path style="stroke:none" d="M 91.921875 -181.015625 L 183.59375 -181.015625 L 183.59375 0.125 C 153 0.125 122.421875 0.0625 91.859375 -0.0625 C 61.296875 -0.1875 30.675781 -0.25 0 -0.25 L 0 -181.375 L 91.921875 -138.8125 Z M 91.921875 -181.015625 "/></g><g transform="translate(2521.25242, 1924.905873)"><path style="stroke:none" d="M 150.859375 -121.203125 L 98.8125 -121.203125 L 98.8125 -116.78125 L 150.859375 -116.78125 L 150.859375 -63.5 L 98.8125 -63.5 L 98.8125 -59.0625 L 150.859375 -59.0625 L 150.859375 -0.125 L 0 -0.125 L 0 -180.15625 L 150.859375 -180.15625 Z M 150.859375 -121.203125 "/></g><g transform="translate(2680.981081, 1924.905873)"><path style="stroke:none" d="M 160.703125 -180.28125 L 160.703125 -113.828125 L 138.0625 -113.828125 L 160.703125 -91.546875 L 160.703125 -20.546875 L 139.671875 -0.375 L 0.609375 -0.375 L 0.609375 -66.8125 L 22.265625 -66.8125 L 0.609375 -89.09375 L 0.609375 -159.234375 L 21.65625 -180.28125 Z M 160.703125 -180.28125 "/></g><g transform="translate(2850.677401, 1924.905873)"><path style="stroke:none" d="M 160.703125 -180.28125 L 160.703125 -113.828125 L 138.0625 -113.828125 L 160.703125 -91.546875 L 160.703125 -20.546875 L 139.671875 -0.375 L 0.609375 -0.375 L 0.609375 -66.8125 L 22.265625 -66.8125 L 0.609375 -89.09375 L 0.609375 -159.234375 L 21.65625 -180.28125 Z M 160.703125 -180.28125 "/></g></g></g></svg>